# xmcd
#
# Track frame offsets: 
#        150
#        13688
#        29232
#        44408
#        61375
#        78273
#        91005
#        104040
#        120178
#        143751
#        158810
#        174517
#        193021
#        214687
#        229299
#        250614
#
# Disc length: 3558 seconds
#
# Revision: 0
# Processed by: cddbd v1.5.1PL0 Copyright (c) Steve Scherf et al.
# Submitted via: ExactAudioCopy v0.95a4
#
DISCID=d30de410
DTITLE=云南葫芦丝 - 流淌的声音
DYEAR=1900
DGENRE=
TTITLE0=高天上的流云
TTITLE1=三月里的小雨
TTITLE2=我可以抱你吗
TTITLE3=弯弯的月亮
TTITLE4=同一首歌
TTITLE5=月朦胧鸟朦胧
TTITLE6=其实你不懂我的心
TTITLE7=青藏高原
TTITLE8=祈祷
TTITLE9=铁血丹心
TTITLE10=为了谁
TTITLE11=月亮惹得祸
TTITLE12=牵手
TTITLE13=橄榄树
TTITLE14=再回首
TTITLE15=难忘今宵
EXTD=
EXTT0=高天上的流云\n
EXTT1=
EXTT2=
EXTT3=
EXTT4=
EXTT5=
EXTT6=
EXTT7=
EXTT8=
EXTT9=
EXTT10=
EXTT11=
EXTT12=
EXTT13=
EXTT14=
EXTT15=
PLAYORDER=
